<svg width="326" height="285" viewBox="0 0 326 285" fill="none" xmlns="http://www.w3.org/2000/svg">
<path d="M238.618 262.918C228.872 264.857 218.771 263.862 209.591 260.06C200.41 256.257 192.564 249.818 187.044 241.556C181.523 233.294 178.577 223.581 178.577 213.644L178.791 184.582L178.577 113.165C178.577 103.228 181.523 93.5151 187.044 85.2532C192.564 76.9914 200.41 70.5521 209.591 66.7496C218.771 62.947 228.872 61.9521 238.618 63.8906C248.363 65.8291 257.315 70.614 264.341 77.6401C271.367 84.6663 276.152 93.6181 278.091 103.364C280.029 113.109 279.034 123.211 275.232 132.391C271.429 141.571 264.99 149.417 256.728 154.938C248.466 160.458 238.753 163.405 228.816 163.405H70.5431C60.6067 163.405 50.8933 166.351 42.6315 171.871C34.3696 177.392 27.9303 185.238 24.1278 194.418C20.3252 203.598 19.3303 213.7 21.2688 223.445C23.2073 233.191 27.9922 242.143 35.0183 249.169C42.0445 256.195 50.9963 260.98 60.7418 262.918C70.4874 264.857 80.5889 263.862 89.769 260.06C98.9491 256.257 106.795 249.818 112.316 241.556C117.836 233.294 120.783 223.581 120.783 213.644V46.1787" stroke="#66BF84" stroke-width="40.6071" stroke-linecap="round" stroke-linejoin="round"/>
<path d="M245.086 256.45C235.341 258.388 225.239 257.393 216.059 253.591C206.879 249.788 199.033 243.349 193.512 235.087C187.992 226.825 185.046 217.112 185.046 207.175L185.26 178.113L185.046 106.696C185.046 96.7596 187.992 87.0463 193.512 78.7844C199.033 70.5225 206.879 64.0832 216.059 60.2807C225.239 56.4782 235.341 55.4833 245.086 57.4218C254.832 59.3603 263.784 64.1452 270.81 71.1713C277.836 78.1974 282.621 87.1492 284.559 96.8948C286.498 106.64 285.503 116.742 281.701 125.922C277.898 135.102 271.459 142.948 263.197 148.469C254.935 153.989 245.222 156.936 235.285 156.936H77.0119C67.0754 156.936 57.3621 159.882 49.1002 165.403C40.8383 170.923 34.399 178.769 30.5965 187.949C26.794 197.13 25.7991 207.231 27.7376 216.977C29.6761 226.722 34.4609 235.674 41.4871 242.7C48.5132 249.726 57.4651 254.511 67.2106 256.45C76.9561 258.388 87.0576 257.393 96.2377 253.591C105.418 249.788 113.264 243.349 118.785 235.087C124.305 226.825 127.251 217.112 127.251 207.175V39.7099" stroke="#CEEAF1" stroke-width="40.6071" stroke-linecap="round" stroke-linejoin="round"/>
<path d="M251.555 249.981C241.81 251.919 231.708 250.924 222.528 247.122C213.348 243.319 205.502 236.88 199.981 228.618C194.461 220.356 191.515 210.643 191.515 200.706L191.729 171.644L191.515 100.227C191.515 90.2907 194.461 80.5774 199.981 72.3155C205.502 64.0537 213.348 57.6144 222.528 53.8118C231.708 50.0093 241.81 49.0144 251.555 50.9529C261.301 52.8914 270.253 57.6763 277.279 64.7024C284.305 71.7286 289.09 80.6804 291.028 90.4259C292.967 100.171 291.972 110.273 288.17 119.453C284.367 128.633 277.928 136.479 269.666 142C261.404 147.52 251.691 150.467 241.754 150.467H83.4809C73.5444 150.467 63.8311 153.413 55.5692 158.934C47.3073 164.454 40.868 172.3 37.0655 181.481C33.263 190.661 32.2681 200.762 34.2066 210.508C36.1451 220.253 40.9299 229.205 47.9561 236.231C54.9822 243.257 63.9341 248.042 73.6796 249.981C83.4251 251.919 93.5266 250.924 102.707 247.122C111.887 243.319 119.733 236.88 125.254 228.618C130.774 220.356 133.72 210.643 133.72 200.706V33.241" stroke="#ECBFA8" stroke-width="40.6071" stroke-linecap="round" stroke-linejoin="round"/>
<path d="M258.024 243.512C248.279 245.45 238.177 244.456 228.997 240.653C219.817 236.85 211.971 230.411 206.45 222.149C200.93 213.887 197.983 204.174 197.983 194.238L198.197 165.175L197.983 93.7584C197.983 83.8219 200.93 74.1086 206.45 65.8467C211.971 57.5848 219.817 51.1455 228.997 47.343C238.177 43.5405 248.279 42.5456 258.024 44.4841C267.77 46.4226 276.722 51.2074 283.748 58.2336C290.774 65.2597 295.559 74.2115 297.497 83.9571C299.436 93.7026 298.441 103.804 294.638 112.984C290.836 122.164 284.396 130.011 276.135 135.531C267.873 141.051 258.159 143.998 248.223 143.998H89.9496C80.0132 143.998 70.2998 146.944 62.038 152.465C53.7761 157.985 47.3368 165.832 43.5342 175.012C39.7317 184.192 38.7368 194.293 40.6753 204.039C42.6138 213.784 47.3987 222.736 54.4248 229.762C61.451 236.789 70.4028 241.573 80.1483 243.512C89.8939 245.45 99.9954 244.456 109.175 240.653C118.356 236.85 126.202 230.411 131.722 222.149C137.243 213.887 140.189 204.174 140.189 194.238V26.7722" stroke="#9E97F8" stroke-width="40.6071" stroke-linecap="round" stroke-linejoin="round"/>
<path d="M264.493 237.043C254.747 238.982 244.646 237.987 235.466 234.184C226.286 230.382 218.439 223.942 212.919 215.681C207.399 207.419 204.452 197.705 204.452 187.769L204.666 158.706L204.452 87.2897C204.452 77.3532 207.399 67.6399 212.919 59.378C218.439 51.1162 226.286 44.6769 235.466 40.8743C244.646 37.0718 254.747 36.0769 264.493 38.0154C274.238 39.9539 283.19 44.7388 290.216 51.7649C297.243 58.7911 302.027 67.7429 303.966 77.4884C305.904 87.2339 304.91 97.3355 301.107 106.516C297.305 115.696 290.865 123.542 282.603 129.062C274.341 134.583 264.628 137.529 254.692 137.529H96.4184C86.4819 137.529 76.7686 140.476 68.5067 145.996C60.2448 151.517 53.8055 159.363 50.003 168.543C46.2005 177.723 45.2056 187.825 47.1441 197.57C49.0826 207.316 53.8674 216.268 60.8936 223.294C67.9197 230.32 76.8716 235.105 86.6171 237.043C96.3626 238.982 106.464 237.987 115.644 234.184C124.824 230.382 132.671 223.942 138.191 215.681C143.711 207.419 146.658 197.705 146.658 187.769V20.3035" stroke="#FCFCFC" stroke-width="40.6071" stroke-linecap="round" stroke-linejoin="round"/>
</svg>
